<?xml version="1.0" standalone="no"?>
<svg xmlns="http://www.w3.org/2000/svg" width="516" height="516" viewBox="0 0 516 516" data-state="resting" data-palette="negative" data-background="#262627">
        <rect xmlns="http://www.w3.org/2000/svg" x="0" y="0" width="516" height="516" fill="#262627"/><title>Typeform</title>
        <g transform="translate(108, 108)">
          <path class="tf-ring" stroke-width="1" fill="none" transform="translate(9, 67)" stroke="#ffffff" d="M 84.60584249384118,169.21168498768236 C 106.90989790494406,168.45608958729386 117.74383420943225,150.89809584654344 134.16966001414283,134.11646301414282 C 150.59540705453674,117.33490902160582 164.95233979477462,106.49065734785849 166.76939657654117,85.26939657654117 C 168.58645335830772,64.04742502525797 161.7864044614915,46.52877327423835 143.25354339441407,27.996567094414065 C 124.72153934034007,9.465209461495727 98.53550986283355,-5.895149642874544 74.07438548956773,-7.425614510432272 C 49.61327832588737,-8.956079377990001 35.30623376565721,2.1299749395307765 20.935133290257184,20.344209090257184 C 6.563153018461877,38.55931411799994 1.8431552341050605,60.17582916476364 2.183878195356107,83.68387819535612 C 2.524601156607141,107.19064248946488 6.159434672140455,120.7947739071982 22.636221830598796,137.89334263059882 C 39.113813686182844,154.9927236610095 62.30123033491716,169.96728038807083 84.60584249384118,169.21168498768236z"/>
          <g class="tf-wordmark" transform="translate(86, 128)" fill="#ffffff">
              <polygon points="0.635793896 5.9761 0.635793896 1.0911 26.5537939 1.0911 26.5537939 5.9761 16.1787939 5.9761 16.1787939 33.9741 11.0107939 33.9741 11.0107939 5.9761"/>
              <polygon class="tf-letter" points="54.3164939 10.2983 48.6314939 10.2983 40.5664939 27.6483 32.9614939 10.2983 27.3324939 10.2983 37.6694939 33.8803 33.1704939 43.5563 38.8564939 43.5563" style="display: block;"/>
              <path class="tf-letter" d="M75.5576939,22.1357 C75.5576939,19.7397 74.9946939,17.8137 73.8676939,16.4057 C72.7396939,14.9487 71.2836939,14.2437 69.4976939,14.2437 C67.7126939,14.2437 66.2566939,14.9487 65.1296939,16.4057 C64.0016939,17.8137 63.4386939,19.7397 63.4386939,22.1357 C63.4386939,24.5317 64.0016939,26.4567 65.1296939,27.9137 C66.2566939,29.3227 67.7126939,30.0277 69.4976939,30.0277 C71.2836939,30.0277 72.7396939,29.3227 73.8676939,27.9137 C74.9946939,26.4567 75.5576939,24.5317 75.5576939,22.1357 M70.0616939,34.3497 C67.2896939,34.3497 64.8946939,33.0337 63.7206939,31.3437 L63.7206939,43.5557 L58.8346939,43.5557 L58.8346939,10.2987 L63.7206939,10.2987 L63.7206939,13.0227 C64.6136939,11.4717 67.2896939,9.9217 70.1566939,9.9217 C77.0616939,9.9217 80.7256939,14.4307 80.7256939,22.1357 C80.7256939,29.6517 77.0136939,34.3497 70.0616939,34.3497 Z" style="display: block;"/>
              <path class="tf-letter" d="M90.2383939,19.4116 L101.747394,19.4116 C101.324394,16.4516 99.3513939,14.2446 96.0163939,14.2446 C92.8693939,14.2446 90.8013939,16.3576 90.2383939,19.4116 L90.2383939,19.4116 Z M106.914394,23.4976 L90.1433939,23.4976 C90.1433939,27.2096 92.3043939,30.0276 96.0163939,30.0276 C98.6463939,30.0276 101.043394,28.5236 102.217394,26.0346 L106.397394,27.6786 C104.002394,32.3286 101.230394,34.3496 96.0163939,34.3496 C88.2183939,34.3496 84.9763939,27.7726 84.9763939,22.1356 C84.9763939,16.4976 88.2183939,9.9216 96.0163939,9.9216 C103.579394,9.9216 106.914394,16.0756 106.914394,21.3846 L106.914394,23.4976 Z" style="display: block;"/>
              <path class="tf-letter" d="M110.897494,14.6191 L110.897494,10.2981 L113.951494,10.2981 L113.951494,9.0771 C113.951494,3.4861 116.958494,0.7151 121.889494,0.7151 C123.439494,0.7151 124.709494,0.9961 125.789494,1.5601 L124.801494,5.6941 C123.957494,5.2711 123.017494,5.0361 122.030494,5.0361 C119.917494,5.0361 118.836494,6.2581 118.836494,8.7481 L118.836494,10.2981 L124.050494,10.2981 L124.050494,14.6191 L118.836494,14.6191 L118.836494,33.9731 L113.951494,33.9731 L113.951494,14.6191 L110.897494,14.6191 Z" style="display: block;"/>
              <path class="tf-letter" d="M132.451294,22.1357 C132.451294,24.2967 133.014294,26.1757 134.141294,27.7257 C135.316294,29.2767 136.913294,30.0277 138.933294,30.0277 C140.953294,30.0277 142.551294,29.2767 143.678294,27.7257 C144.852294,26.1757 145.416294,24.2967 145.416294,22.1357 C145.416294,19.9747 144.852294,18.1427 143.678294,16.5927 C142.551294,15.0417 140.953294,14.2437 138.933294,14.2437 C136.913294,14.2437 135.316294,15.0417 134.141294,16.5927 C133.014294,18.1427 132.451294,19.9747 132.451294,22.1357 M127.283294,22.1357 C127.283294,18.7067 128.316294,15.7947 130.430294,13.4457 C132.545294,11.0957 135.410294,9.9217 138.933294,9.9217 C142.457294,9.9217 145.275294,11.0957 147.389294,13.4457 C149.503294,15.7947 150.583294,18.7067 150.583294,22.1357 C150.583294,25.5647 149.503294,28.4777 147.389294,30.8267 C145.275294,33.1747 142.457294,34.3497 138.933294,34.3497 C135.410294,34.3497 132.545294,33.1747 130.430294,30.8267 C128.316294,28.4777 127.283294,25.5647 127.283294,22.1357 Z" style="display: block;"/>
              <path class="tf-letter" d="M160.109494,33.9736 L155.224494,33.9736 L155.224494,10.2986 L160.109494,10.2986 L160.109494,14.2446 C161.660494,11.4726 164.478494,9.9216 167.109494,9.9216 C168.189494,9.9216 169.175494,10.1106 170.115494,10.4856 L169.269494,14.9486 C168.518494,14.4786 167.579494,14.2446 166.498494,14.2446 C164.760494,14.2446 163.256494,15.1836 161.989494,17.1086 C160.720494,18.9876 160.109494,21.6656 160.109494,25.1886 L160.109494,33.9736 Z" style="display: block;"/>
              <path class="tf-letter" d="M175.139694,10.2983 L180.024694,10.2983 L180.024694,14.3383 C181.951694,11.3783 184.299694,9.9223 187.164694,9.9223 C190.359694,9.9223 192.990694,11.8483 193.695694,14.8073 C195.338694,11.6603 198.016694,9.9223 201.070694,9.9223 C205.344694,9.9223 207.834694,12.7403 207.834694,17.0153 L207.834694,33.9733 L202.949694,33.9733 L202.949694,18.0963 C202.949694,15.6063 201.586694,14.2443 199.472694,14.2443 C196.419694,14.2443 193.929694,18.2363 193.929694,24.4843 L193.929694,33.9733 L189.043694,33.9733 L189.043694,18.0963 C189.043694,15.6063 187.681694,14.2443 185.568694,14.2443 C182.420694,14.2443 180.024694,18.2363 180.024694,25.0013 L180.024694,33.9733 L175.139694,33.9733 L175.139694,10.2983 Z" style="display: block;"/>
          </g>
        </g>
    </svg>